<svg width="17" height="16" viewBox="0 0 17 16" fill="none" xmlns="http://www.w3.org/2000/svg">
    <path d="M4 14.5H13" stroke="#D1D5DB" stroke-width="1.5" stroke-linecap="round" stroke-linejoin="round"/>
    <path d="M8.5 8.5C9.60457 8.5 10.5 7.60457 10.5 6.5C10.5 5.39543 9.60457 4.5 8.5 4.5C7.39543 4.5 6.5 5.39543 6.5 6.5C6.5 7.60457 7.39543 8.5 8.5 8.5Z" stroke="#D1D5DB" stroke-width="1.5" stroke-linecap="round" stroke-linejoin="round"/>
    <path d="M13.5 6.5C13.5 11 8.5 14.5 8.5 14.5C8.5 14.5 3.5 11 3.5 6.5C3.5 5.17392 4.02678 3.90215 4.96447 2.96447C5.90215 2.02678 7.17392 1.5 8.5 1.5C9.82608 1.5 11.0979 2.02678 12.0355 2.96447C12.9732 3.90215 13.5 5.17392 13.5 6.5V6.5Z" stroke="#D1D5DB" stroke-width="1.5" stroke-linecap="round" stroke-linejoin="round"/>
</svg>
