<svg id="Layer_1" data-name="Layer 1" xmlns="http://www.w3.org/2000/svg" viewBox="0 0 999.63 104.44"><defs><style>.cls-1{fill:#fff;}</style></defs><path class="cls-1" d="M115.14,103.31V1.69h48.7v15.2H132.59V43.07H156v15.2H132.59v45Z" transform="translate(-0.18 -0.28)"/><path class="cls-1" d="M174,103.31V1.69h17.46V88.11h27.45v15.2Z" transform="translate(-0.18 -0.28)"/><path class="cls-1" d="M245.94,103.31H229.05L247.77,1.69h21.67l18.72,101.62H271.27l-3.09-22.52H249Zm5.63-37.72h14.07L258.75,22h-.29Z" transform="translate(-0.18 -0.28)"/><path class="cls-1" d="M306,16.89H289.14V1.69h51.24v15.2h-16.9v86.42H306Z" transform="translate(-0.18 -0.28)"/><path class="cls-1" d="M353.58,103.31V1.69H371V103.31Z" transform="translate(-0.18 -0.28)"/><path class="cls-1" d="M408.25,103.31H390.8V1.69h24.49c19.56,0,29.56,8.3,29.56,30,0,16.33-6.34,22.94-12.25,25.62l14.78,46H429.65L417.26,61.23a84.59,84.59,0,0,1-9,.42Zm0-56h6.19c9.43,0,12.95-3.52,12.95-15.62S423.87,16,414.44,16h-6.19Z" transform="translate(-0.18 -0.28)"/><path class="cls-1" d="M457.8,26.32c0-14.36,8.45-26,26.75-26s26.74,11.68,26.74,26V78.68c0,14.36-8.45,26-26.74,26S457.8,93,457.8,78.68Zm17.46,51.94c0,7.6,2.25,11.26,9.29,11.26s9.29-3.66,9.29-11.26V26.74c0-7.6-2.26-11.26-9.29-11.26s-9.29,3.66-9.29,11.26Z" transform="translate(-0.18 -0.28)"/><path class="cls-1" d="M527.07,103.31V1.69h16.19l21.25,58.13h.29V1.69h15.76V103.31h-15.2L543.12,39.83h-.28v63.48Z" transform="translate(-0.18 -0.28)"/><path class="cls-1" d="M654.87,26.74c-.71-8.73-5.35-11.26-9.29-11.26-5.63,0-8.73,3.66-8.73,10,0,17.32,35.47,25.62,35.47,53.21,0,16.75-11.26,26-27.59,26s-25.48-13-26.18-28.15l16.61-2.39c.7,10.27,4.79,15.34,10.42,15.34,6,0,10.13-3.24,10.13-9.29,0-20.13-35.47-25.48-35.47-54.61,0-16.19,9.85-25.34,27-25.34,14.21,0,22.66,10.27,24.21,24.63Z" transform="translate(-0.18 -0.28)"/><path class="cls-1" d="M719.63,35.61V27.73c0-8.59-3.94-12.25-8.44-12.25-7,0-9.29,3.66-9.29,11.26V78.26c0,7.6,2.25,11.26,9.29,11.26,6.33,0,8.44-3.66,8.44-10.28V67h17.46V78.68c0,14.36-8.45,26-25.9,26-18.3,0-26.75-11.68-26.75-26V26.32c0-14.36,8.45-26,26.75-26,17.45,0,25.9,12.67,25.9,27.87v7.46Z" transform="translate(-0.18 -0.28)"/><path class="cls-1" d="M750.35,103.31V1.69H767.8V43.07h18.58V1.69h17.46V103.31H786.38v-45H767.8v45Z" transform="translate(-0.18 -0.28)"/><path class="cls-1" d="M819.55,26.32c0-14.36,8.45-26,26.75-26S873,12,873,26.32V78.68c0,14.36-8.45,26-26.74,26s-26.75-11.68-26.75-26ZM837,78.26c0,7.6,2.25,11.26,9.29,11.26s9.29-3.66,9.29-11.26V26.74c0-7.6-2.26-11.26-9.29-11.26S837,19.14,837,26.74Z" transform="translate(-0.18 -0.28)"/><path class="cls-1" d="M887.11,26.32c0-14.36,8.44-26,26.74-26s26.74,11.68,26.74,26V78.68c0,14.36-8.44,26-26.74,26s-26.74-11.68-26.74-26Zm17.45,51.94c0,7.6,2.25,11.26,9.29,11.26s9.29-3.66,9.29-11.26V26.74c0-7.6-2.25-11.26-9.29-11.26s-9.29,3.66-9.29,11.26Z" transform="translate(-0.18 -0.28)"/><path class="cls-1" d="M954.91,103.31V1.69h17.46V88.11h27.45v15.2Z" transform="translate(-0.18 -0.28)"/><polygon class="cls-1" points="0 104.44 17.83 104.44 48.88 0.03 31.04 0.03 0 104.44"/><polygon class="cls-1" points="35.69 104.44 53.53 104.44 84.57 0.03 66.73 0.03 35.69 104.44"/></svg>